<mxfile host="65bd71144e">
    <diagram id="yRi8U3qzka9xSznIqlw_" name="第 1 页">
        <mxGraphModel dx="1368" dy="866" grid="1" gridSize="10" guides="1" tooltips="1" connect="1" arrows="1" fold="1" page="1" pageScale="1" pageWidth="827" pageHeight="1169" math="0" shadow="0">
            <root>
                <mxCell id="0"/>
                <mxCell id="1" parent="0"/>
                <mxCell id="65" value="" style="rounded=1;whiteSpace=wrap;html=1;fontSize=10;dashed=1;dashPattern=1 4;fillColor=#f5f5f5;strokeColor=#666666;fontColor=#333333;" vertex="1" parent="1">
                    <mxGeometry x="260" y="110" width="300" height="80" as="geometry"/>
                </mxCell>
                <mxCell id="2" value="&lt;b&gt;编译平台&lt;br&gt;&lt;/b&gt;&lt;font style=&quot;font-size: 10px;&quot;&gt;host platform&lt;/font&gt;" style="rounded=0;whiteSpace=wrap;html=1;strokeColor=#56517e;fontFamily=Comic Sans MS;fillColor=#d0cee2;" parent="1" vertex="1">
                    <mxGeometry x="190" y="250" width="120" height="60" as="geometry"/>
                </mxCell>
                <mxCell id="3" value="stable&lt;br style=&quot;font-size: 10px;&quot;&gt;六周" style="rounded=0;whiteSpace=wrap;html=1;fontFamily=Comic Sans MS;fontSize=10;" parent="1" vertex="1">
                    <mxGeometry x="40" y="290" width="120" height="40" as="geometry"/>
                </mxCell>
                <mxCell id="4" value="beta&lt;br style=&quot;font-size: 10px;&quot;&gt;下个稳定版" style="rounded=0;whiteSpace=wrap;html=1;fontFamily=Comic Sans MS;fontSize=10;" parent="1" vertex="1">
                    <mxGeometry x="40" y="340" width="120" height="40" as="geometry"/>
                </mxCell>
                <mxCell id="5" value="nightly&lt;br style=&quot;font-size: 10px;&quot;&gt;夜更" style="rounded=0;whiteSpace=wrap;html=1;fontFamily=Comic Sans MS;fontSize=10;" parent="1" vertex="1">
                    <mxGeometry x="40" y="390" width="120" height="40" as="geometry"/>
                </mxCell>
                <mxCell id="6" value="&lt;font style=&quot;&quot;&gt;&lt;b&gt;RUST发行渠道&lt;br&gt;&lt;/b&gt;&lt;/font&gt;&lt;font style=&quot;font-size: 10px;&quot;&gt;stable/beta/nightly&lt;/font&gt;" style="rounded=0;whiteSpace=wrap;html=1;strokeColor=#23445d;fontFamily=Comic Sans MS;fillColor=#bac8d3;" parent="1" vertex="1">
                    <mxGeometry x="190" y="330" width="120" height="60" as="geometry"/>
                </mxCell>
                <mxCell id="8" value="&lt;b&gt;运行平台&lt;br&gt;&lt;/b&gt;&lt;font style=&quot;font-size: 10px;&quot;&gt;target platform&lt;/font&gt;" style="rounded=0;whiteSpace=wrap;html=1;fontFamily=Comic Sans MS;fillColor=#d0cee2;strokeColor=#56517e;" parent="1" vertex="1">
                    <mxGeometry x="650" y="120" width="120" height="60" as="geometry"/>
                </mxCell>
                <mxCell id="12" value="&lt;b&gt;工具代理&lt;br&gt;&lt;/b&gt;&lt;font style=&quot;font-size: 10px;&quot;&gt;.cargo/bin/*&lt;/font&gt;" style="rounded=0;whiteSpace=wrap;html=1;fontFamily=Comic Sans MS;fillColor=#647687;fontColor=#ffffff;strokeColor=#314354;" parent="1" vertex="1">
                    <mxGeometry x="280" y="120" width="120" height="60" as="geometry"/>
                </mxCell>
                <mxCell id="14" value="--target" style="endArrow=classic;html=1;exitX=1;exitY=0.5;exitDx=0;exitDy=0;entryX=0;entryY=0.5;entryDx=0;entryDy=0;fontFamily=Comic Sans MS;" parent="1" source="20" target="8" edge="1">
                    <mxGeometry width="50" height="50" relative="1" as="geometry">
                        <mxPoint x="205" y="169.9999999999999" as="sourcePoint"/>
                        <mxPoint x="395" y="230" as="targetPoint"/>
                    </mxGeometry>
                </mxCell>
                <mxCell id="20" value="&lt;font style=&quot;&quot;&gt;&lt;b&gt;工具链&lt;br&gt;&lt;/b&gt;&lt;/font&gt;&lt;font style=&quot;font-size: 10px;&quot;&gt;.rustup/toolchains/*&lt;/font&gt;" style="rounded=0;whiteSpace=wrap;html=1;fontFamily=Comic Sans MS;fillColor=#647687;fontColor=#ffffff;strokeColor=#314354;" parent="1" vertex="1">
                    <mxGeometry x="430" y="120" width="120" height="60" as="geometry"/>
                </mxCell>
                <mxCell id="23" value="&lt;b&gt;编译发起&lt;/b&gt;" style="rounded=0;whiteSpace=wrap;html=1;fontFamily=Comic Sans MS;fillColor=#d5e8d4;strokeColor=#82b366;gradientColor=#97d077;" parent="1" vertex="1">
                    <mxGeometry x="40" y="120" width="120" height="60" as="geometry"/>
                </mxCell>
                <mxCell id="24" value="&lt;font style=&quot;font-size: 10px;&quot;&gt;rustc, cargo, ...&lt;/font&gt;" style="endArrow=classic;html=1;exitX=1;exitY=0.5;exitDx=0;exitDy=0;fontFamily=Comic Sans MS;" parent="1" source="23" target="12" edge="1">
                    <mxGeometry width="50" height="50" relative="1" as="geometry">
                        <mxPoint x="390" y="480" as="sourcePoint"/>
                        <mxPoint x="450" y="230" as="targetPoint"/>
                        <Array as="points">
                            <mxPoint x="200" y="150"/>
                        </Array>
                    </mxGeometry>
                </mxCell>
                <mxCell id="25" value="&lt;font color=&quot;#009999&quot; style=&quot;font-size: 10px;&quot;&gt;如: nightly&lt;/font&gt;-&lt;font style=&quot;font-size: 10px;&quot;&gt;x86_64-unknown-linux-gnu&lt;/font&gt;" style="rounded=0;whiteSpace=wrap;html=1;dashed=1;fontFamily=Comic Sans MS;fontSize=10;" parent="1" vertex="1">
                    <mxGeometry x="120" y="210" width="190" height="30" as="geometry"/>
                </mxCell>
                <mxCell id="28" value="" style="endArrow=classic;html=1;fontColor=#000000;exitX=1;exitY=0.5;exitDx=0;exitDy=0;entryX=0;entryY=0.5;entryDx=0;entryDy=0;fontFamily=Comic Sans MS;" parent="1" source="12" target="20" edge="1">
                    <mxGeometry width="50" height="50" relative="1" as="geometry">
                        <mxPoint x="390" y="290" as="sourcePoint"/>
                        <mxPoint x="440" y="240" as="targetPoint"/>
                    </mxGeometry>
                </mxCell>
                <mxCell id="29" value="" style="endArrow=none;dashed=1;html=1;fontColor=#000000;exitX=1;exitY=0.5;exitDx=0;exitDy=0;fontFamily=Comic Sans MS;entryX=0;entryY=1;entryDx=0;entryDy=0;" parent="1" source="2" target="20" edge="1">
                    <mxGeometry width="50" height="50" relative="1" as="geometry">
                        <mxPoint x="390" y="280" as="sourcePoint"/>
                        <mxPoint x="440" y="230" as="targetPoint"/>
                    </mxGeometry>
                </mxCell>
                <mxCell id="30" value="" style="endArrow=none;dashed=1;html=1;fontColor=#000000;entryX=0;entryY=1;entryDx=0;entryDy=0;exitX=1;exitY=0.5;exitDx=0;exitDy=0;fontFamily=Comic Sans MS;" parent="1" source="6" target="20" edge="1">
                    <mxGeometry width="50" height="50" relative="1" as="geometry">
                        <mxPoint x="390" y="280" as="sourcePoint"/>
                        <mxPoint x="440" y="230" as="targetPoint"/>
                    </mxGeometry>
                </mxCell>
                <mxCell id="31" value="" style="endArrow=none;dashed=1;html=1;fontColor=#000000;exitX=1;exitY=0.5;exitDx=0;exitDy=0;entryX=0;entryY=0.5;entryDx=0;entryDy=0;fontFamily=Comic Sans MS;" parent="1" source="3" target="6" edge="1">
                    <mxGeometry width="50" height="50" relative="1" as="geometry">
                        <mxPoint x="390" y="290" as="sourcePoint"/>
                        <mxPoint x="440" y="240" as="targetPoint"/>
                    </mxGeometry>
                </mxCell>
                <mxCell id="32" value="" style="endArrow=none;dashed=1;html=1;fontColor=#000000;exitX=1;exitY=0.5;exitDx=0;exitDy=0;entryX=0;entryY=0.5;entryDx=0;entryDy=0;fontFamily=Comic Sans MS;" parent="1" edge="1">
                    <mxGeometry width="50" height="50" relative="1" as="geometry">
                        <mxPoint x="159" y="360" as="sourcePoint"/>
                        <mxPoint x="189" y="360" as="targetPoint"/>
                    </mxGeometry>
                </mxCell>
                <mxCell id="33" value="" style="endArrow=none;dashed=1;html=1;fontColor=#000000;exitX=1;exitY=0.5;exitDx=0;exitDy=0;entryX=0;entryY=0.5;entryDx=0;entryDy=0;fontFamily=Comic Sans MS;" parent="1" edge="1">
                    <mxGeometry width="50" height="50" relative="1" as="geometry">
                        <mxPoint x="159" y="410" as="sourcePoint"/>
                        <mxPoint x="189" y="360" as="targetPoint"/>
                    </mxGeometry>
                </mxCell>
                <mxCell id="34" value="==" style="text;html=1;align=center;verticalAlign=middle;resizable=0;points=[];autosize=1;strokeColor=none;fillColor=none;fontColor=#000000;fontFamily=Comic Sans MS;" parent="1" vertex="1">
                    <mxGeometry x="340" y="240" width="40" height="30" as="geometry"/>
                </mxCell>
                <mxCell id="36" value="&lt;b&gt;&lt;font style=&quot;font-size: 14px;&quot;&gt;rustup&lt;/font&gt;&lt;br&gt;&lt;font style=&quot;font-size: 10px;&quot;&gt;.rustup/settings.toml&lt;/font&gt;&lt;/b&gt;" style="rounded=0;whiteSpace=wrap;html=1;fontFamily=Comic Sans MS;fillColor=#6d8764;strokeColor=#3A5431;fontColor=#ffffff;" parent="1" vertex="1">
                    <mxGeometry x="418" y="290" width="120" height="60" as="geometry"/>
                </mxCell>
                <mxCell id="37" value="工具链复用器" style="endArrow=none;dashed=1;html=1;fontColor=#000000;fontFamily=Comic Sans MS;entryX=0.727;entryY=1;entryDx=0;entryDy=0;entryPerimeter=0;" parent="1" source="36" target="65" edge="1">
                    <mxGeometry width="50" height="50" relative="1" as="geometry">
                        <mxPoint x="390" y="280" as="sourcePoint"/>
                        <mxPoint x="485" y="190" as="targetPoint"/>
                    </mxGeometry>
                </mxCell>
                <mxCell id="39" value="rustup toolchain install *" style="rounded=0;whiteSpace=wrap;html=1;fontSize=10;fontFamily=Comic Sans MS;" parent="1" vertex="1">
                    <mxGeometry x="418" y="370" width="120" height="30" as="geometry"/>
                </mxCell>
                <mxCell id="40" value="rustup default *" style="rounded=0;whiteSpace=wrap;html=1;fontSize=10;fontFamily=Comic Sans MS;" parent="1" vertex="1">
                    <mxGeometry x="418" y="410" width="120" height="30" as="geometry"/>
                </mxCell>
                <mxCell id="41" value="rustup target *" style="rounded=0;whiteSpace=wrap;html=1;fontSize=10;fontFamily=Comic Sans MS;" parent="1" vertex="1">
                    <mxGeometry x="417" y="490" width="120" height="30" as="geometry"/>
                </mxCell>
                <mxCell id="42" value="1: N" style="text;html=1;align=center;verticalAlign=middle;resizable=0;points=[];autosize=1;strokeColor=none;fillColor=none;fontSize=10;fontColor=#000000;dashed=1;fontFamily=Comic Sans MS;" parent="1" vertex="1">
                    <mxGeometry x="580" y="150" width="40" height="30" as="geometry"/>
                </mxCell>
                <mxCell id="43" value="rustup component *" style="rounded=0;whiteSpace=wrap;html=1;fontSize=10;fontFamily=Comic Sans MS;" parent="1" vertex="1">
                    <mxGeometry x="417" y="450" width="120" height="30" as="geometry"/>
                </mxCell>
                <mxCell id="45" value="本工具链包含的程序、工具、支持库等" style="rounded=0;whiteSpace=wrap;html=1;fontSize=10;dashed=1;fontFamily=Comic Sans MS;" parent="1" vertex="1">
                    <mxGeometry x="563" y="450" width="200" height="30" as="geometry"/>
                </mxCell>
                <mxCell id="46" value="本工具链已支持的目标平台" style="rounded=0;whiteSpace=wrap;html=1;fontSize=10;dashed=1;fontFamily=Comic Sans MS;" parent="1" vertex="1">
                    <mxGeometry x="563" y="490" width="200" height="30" as="geometry"/>
                </mxCell>
                <mxCell id="47" value="设置默认工具链" style="rounded=0;whiteSpace=wrap;html=1;fontSize=10;dashed=1;fontFamily=Comic Sans MS;" parent="1" vertex="1">
                    <mxGeometry x="563" y="410" width="200" height="30" as="geometry"/>
                </mxCell>
                <mxCell id="48" value="工具链安装" style="rounded=0;whiteSpace=wrap;html=1;fontSize=10;dashed=1;fontFamily=Comic Sans MS;" parent="1" vertex="1">
                    <mxGeometry x="563" y="370" width="200" height="30" as="geometry"/>
                </mxCell>
                <mxCell id="50" value="4种覆盖默认工具链方法" style="rounded=0;whiteSpace=wrap;html=1;fontSize=10;dashed=1;fontFamily=Comic Sans MS;" parent="1" vertex="1">
                    <mxGeometry x="183" y="410" width="210" height="30" as="geometry"/>
                </mxCell>
                <mxCell id="51" value="" style="endArrow=none;dashed=1;html=1;fontFamily=Comic Sans MS;fontSize=10;fontColor=#000000;entryX=0;entryY=0.5;entryDx=0;entryDy=0;exitX=1;exitY=0.5;exitDx=0;exitDy=0;" parent="1" source="53" target="41" edge="1">
                    <mxGeometry width="50" height="50" relative="1" as="geometry">
                        <mxPoint x="383" y="340" as="sourcePoint"/>
                        <mxPoint x="433" y="290" as="targetPoint"/>
                    </mxGeometry>
                </mxCell>
                <mxCell id="52" value="" style="endArrow=none;dashed=1;html=1;fontFamily=Comic Sans MS;fontSize=10;fontColor=#000000;entryX=1;entryY=0.5;entryDx=0;entryDy=0;exitX=0;exitY=0.5;exitDx=0;exitDy=0;" parent="1" source="47" target="40" edge="1">
                    <mxGeometry width="50" height="50" relative="1" as="geometry">
                        <mxPoint x="383" y="340" as="sourcePoint"/>
                        <mxPoint x="433" y="290" as="targetPoint"/>
                    </mxGeometry>
                </mxCell>
                <mxCell id="53" value="每个target都有自己对应的标准库、支持库" style="rounded=0;whiteSpace=wrap;html=1;fontSize=10;dashed=1;fontFamily=Comic Sans MS;" parent="1" vertex="1">
                    <mxGeometry x="183" y="490" width="210" height="30" as="geometry"/>
                </mxCell>
                <mxCell id="54" value="" style="endArrow=none;dashed=1;html=1;fontFamily=Comic Sans MS;fontSize=10;fontColor=#000000;exitX=1;exitY=0.5;exitDx=0;exitDy=0;entryX=0;entryY=0.5;entryDx=0;entryDy=0;" parent="1" source="50" target="40" edge="1">
                    <mxGeometry width="50" height="50" relative="1" as="geometry">
                        <mxPoint x="383" y="340" as="sourcePoint"/>
                        <mxPoint x="433" y="290" as="targetPoint"/>
                    </mxGeometry>
                </mxCell>
                <mxCell id="55" value="" style="endArrow=none;dashed=1;html=1;fontFamily=Comic Sans MS;fontSize=10;fontColor=#000000;exitX=1;exitY=0.5;exitDx=0;exitDy=0;entryX=0;entryY=0.5;entryDx=0;entryDy=0;" parent="1" source="41" target="46" edge="1">
                    <mxGeometry width="50" height="50" relative="1" as="geometry">
                        <mxPoint x="383" y="340" as="sourcePoint"/>
                        <mxPoint x="433" y="290" as="targetPoint"/>
                    </mxGeometry>
                </mxCell>
                <mxCell id="56" value="预定义配置: minimal default complete" style="rounded=0;whiteSpace=wrap;html=1;fontSize=10;dashed=1;fontFamily=Comic Sans MS;" parent="1" vertex="1">
                    <mxGeometry x="183" y="450" width="210" height="30" as="geometry"/>
                </mxCell>
                <mxCell id="57" value="" style="endArrow=none;dashed=1;html=1;fontFamily=Comic Sans MS;fontSize=10;fontColor=#000000;exitX=1;exitY=0.5;exitDx=0;exitDy=0;entryX=0;entryY=0.5;entryDx=0;entryDy=0;" parent="1" source="56" target="43" edge="1">
                    <mxGeometry width="50" height="50" relative="1" as="geometry">
                        <mxPoint x="383" y="340" as="sourcePoint"/>
                        <mxPoint x="433" y="290" as="targetPoint"/>
                    </mxGeometry>
                </mxCell>
                <mxCell id="58" value="" style="endArrow=none;dashed=1;html=1;fontFamily=Comic Sans MS;fontSize=10;fontColor=#000000;exitX=1;exitY=0.5;exitDx=0;exitDy=0;entryX=0;entryY=0.5;entryDx=0;entryDy=0;" parent="1" source="43" target="45" edge="1">
                    <mxGeometry width="50" height="50" relative="1" as="geometry">
                        <mxPoint x="383" y="340" as="sourcePoint"/>
                        <mxPoint x="433" y="290" as="targetPoint"/>
                    </mxGeometry>
                </mxCell>
                <mxCell id="59" value="Rust工具链" style="text;html=1;align=center;verticalAlign=middle;resizable=0;points=[];autosize=1;strokeColor=none;fillColor=none;fontSize=14;fontFamily=Comic Sans MS;fontColor=#000000;fontStyle=1" parent="1" vertex="1">
                    <mxGeometry x="364" y="60" width="100" height="30" as="geometry"/>
                </mxCell>
                <mxCell id="60" value="+" style="text;html=1;align=center;verticalAlign=middle;resizable=0;points=[];autosize=1;strokeColor=none;fillColor=none;" vertex="1" parent="1">
                    <mxGeometry x="235" y="305" width="30" height="30" as="geometry"/>
                </mxCell>
                <mxCell id="61" value="" style="endArrow=none;dashed=1;html=1;entryX=0.5;entryY=1;entryDx=0;entryDy=0;" edge="1" parent="1" source="39" target="36">
                    <mxGeometry width="50" height="50" relative="1" as="geometry">
                        <mxPoint x="390" y="550" as="sourcePoint"/>
                        <mxPoint x="440" y="500" as="targetPoint"/>
                    </mxGeometry>
                </mxCell>
                <mxCell id="62" value="" style="endArrow=none;dashed=1;html=1;entryX=1;entryY=0.5;entryDx=0;entryDy=0;exitX=0;exitY=0.5;exitDx=0;exitDy=0;" edge="1" parent="1" source="48" target="39">
                    <mxGeometry width="50" height="50" relative="1" as="geometry">
                        <mxPoint x="383" y="550" as="sourcePoint"/>
                        <mxPoint x="433" y="500" as="targetPoint"/>
                    </mxGeometry>
                </mxCell>
                <mxCell id="63" value="默认与编译平台一致" style="rounded=0;whiteSpace=wrap;html=1;fontSize=10;dashed=1;" vertex="1" parent="1">
                    <mxGeometry x="650" y="200" width="120" height="40" as="geometry"/>
                </mxCell>
                <mxCell id="64" value="一个工具链对应多个target" style="rounded=0;whiteSpace=wrap;html=1;fontSize=10;dashed=1;" vertex="1" parent="1">
                    <mxGeometry x="650" y="250" width="120" height="40" as="geometry"/>
                </mxCell>
                <mxCell id="66" value="" style="endArrow=none;dashed=1;html=1;fontSize=10;entryX=0.5;entryY=1;entryDx=0;entryDy=0;" edge="1" parent="1" source="63" target="8">
                    <mxGeometry width="50" height="50" relative="1" as="geometry">
                        <mxPoint x="390" y="460" as="sourcePoint"/>
                        <mxPoint x="440" y="410" as="targetPoint"/>
                    </mxGeometry>
                </mxCell>
                <mxCell id="68" value="" style="endArrow=none;dashed=1;html=1;fontSize=14;entryX=0;entryY=1;entryDx=0;entryDy=0;exitX=1;exitY=0;exitDx=0;exitDy=0;" edge="1" parent="1" source="25" target="20">
                    <mxGeometry width="50" height="50" relative="1" as="geometry">
                        <mxPoint x="440" y="470" as="sourcePoint"/>
                        <mxPoint x="490" y="420" as="targetPoint"/>
                    </mxGeometry>
                </mxCell>
            </root>
        </mxGraphModel>
    </diagram>
</mxfile>